<mxfile host="app.diagrams.net" agent="Mozilla/5.0 (X11; Linux x86_64) AppleWebKit/537.36 (KHTML, like Gecko) Chrome/131.0.0.0 Safari/537.36" version="26.0.4">
  <diagram name="Страница — 1" id="Xs7JEqeAFB-bQDPeL9dF">
    <mxGraphModel dx="2067" dy="710" grid="1" gridSize="10" guides="1" tooltips="1" connect="0" arrows="1" fold="1" page="1" pageScale="1" pageWidth="827" pageHeight="1169" math="0" shadow="0">
      <root>
        <mxCell id="0" />
        <mxCell id="1" parent="0" />
        <mxCell id="oHmZWyCTd7a1Ow8a4Acl-12" value="&lt;div&gt;&lt;i style=&quot;font-weight: 400;&quot;&gt;&amp;lt;&amp;lt;Abs. Class&amp;gt;&amp;gt; &lt;br&gt;&lt;/i&gt;&lt;/div&gt;&lt;div&gt;People&lt;/div&gt;" style="swimlane;fontStyle=1;align=center;verticalAlign=top;childLayout=stackLayout;horizontal=1;startSize=44;horizontalStack=0;resizeParent=1;resizeParentMax=0;resizeLast=0;collapsible=1;marginBottom=0;whiteSpace=wrap;html=1;" parent="1" vertex="1">
          <mxGeometry x="310" y="1040" width="160" height="138" as="geometry" />
        </mxCell>
        <mxCell id="oHmZWyCTd7a1Ow8a4Acl-13" value="+ name: String" style="text;strokeColor=none;fillColor=none;align=left;verticalAlign=top;spacingLeft=4;spacingRight=4;overflow=hidden;rotatable=0;points=[[0,0.5],[1,0.5]];portConstraint=eastwest;whiteSpace=wrap;html=1;" parent="oHmZWyCTd7a1Ow8a4Acl-12" vertex="1">
          <mxGeometry y="44" width="160" height="26" as="geometry" />
        </mxCell>
        <mxCell id="oHmZWyCTd7a1Ow8a4Acl-16" value="+ setName(String): void" style="text;strokeColor=none;fillColor=none;align=left;verticalAlign=top;spacingLeft=4;spacingRight=4;overflow=hidden;rotatable=0;points=[[0,0.5],[1,0.5]];portConstraint=eastwest;whiteSpace=wrap;html=1;" parent="oHmZWyCTd7a1Ow8a4Acl-12" vertex="1">
          <mxGeometry y="70" width="160" height="34" as="geometry" />
        </mxCell>
        <mxCell id="oHmZWyCTd7a1Ow8a4Acl-17" value="+ getName(): String" style="text;strokeColor=none;fillColor=none;align=left;verticalAlign=top;spacingLeft=4;spacingRight=4;overflow=hidden;rotatable=0;points=[[0,0.5],[1,0.5]];portConstraint=eastwest;whiteSpace=wrap;html=1;" parent="oHmZWyCTd7a1Ow8a4Acl-12" vertex="1">
          <mxGeometry y="104" width="160" height="34" as="geometry" />
        </mxCell>
        <mxCell id="oHmZWyCTd7a1Ow8a4Acl-18" value="&lt;div&gt;&lt;span style=&quot;background-color: transparent; color: light-dark(rgb(0, 0, 0), rgb(255, 255, 255));&quot;&gt;Builders&lt;/span&gt;&lt;/div&gt;" style="swimlane;fontStyle=1;align=center;verticalAlign=top;childLayout=stackLayout;horizontal=1;startSize=44;horizontalStack=0;resizeParent=1;resizeParentMax=0;resizeLast=0;collapsible=1;marginBottom=0;whiteSpace=wrap;html=1;" parent="1" vertex="1">
          <mxGeometry x="310" y="1310" width="180" height="142" as="geometry" />
        </mxCell>
        <mxCell id="oHmZWyCTd7a1Ow8a4Acl-19" value="+ names: String[]" style="text;strokeColor=none;fillColor=none;align=left;verticalAlign=top;spacingLeft=4;spacingRight=4;overflow=hidden;rotatable=0;points=[[0,0.5],[1,0.5]];portConstraint=eastwest;whiteSpace=wrap;html=1;" parent="oHmZWyCTd7a1Ow8a4Acl-18" vertex="1">
          <mxGeometry y="44" width="180" height="26" as="geometry" />
        </mxCell>
        <mxCell id="oHmZWyCTd7a1Ow8a4Acl-21" value="" style="line;strokeWidth=1;fillColor=none;align=left;verticalAlign=middle;spacingTop=-1;spacingLeft=3;spacingRight=3;rotatable=0;labelPosition=right;points=[];portConstraint=eastwest;strokeColor=inherit;" parent="oHmZWyCTd7a1Ow8a4Acl-18" vertex="1">
          <mxGeometry y="70" width="180" height="8" as="geometry" />
        </mxCell>
        <mxCell id="GCY9MlM0JJRvWQCIpYqd-15" value="+ armWithWeapon(String): void" style="text;strokeColor=none;fillColor=none;align=left;verticalAlign=top;spacingLeft=4;spacingRight=4;overflow=hidden;rotatable=0;points=[[0,0.5],[1,0.5]];portConstraint=eastwest;whiteSpace=wrap;html=1;" vertex="1" parent="oHmZWyCTd7a1Ow8a4Acl-18">
          <mxGeometry y="78" width="180" height="38" as="geometry" />
        </mxCell>
        <mxCell id="oHmZWyCTd7a1Ow8a4Acl-54" value="+ build(String[], Alcove): void&amp;nbsp;" style="text;strokeColor=none;fillColor=none;align=left;verticalAlign=top;spacingLeft=4;spacingRight=4;overflow=hidden;rotatable=0;points=[[0,0.5],[1,0.5]];portConstraint=eastwest;whiteSpace=wrap;html=1;" parent="oHmZWyCTd7a1Ow8a4Acl-18" vertex="1">
          <mxGeometry y="116" width="180" height="26" as="geometry" />
        </mxCell>
        <mxCell id="oHmZWyCTd7a1Ow8a4Acl-74" style="edgeStyle=orthogonalEdgeStyle;rounded=0;orthogonalLoop=1;jettySize=auto;html=1;" parent="1" source="oHmZWyCTd7a1Ow8a4Acl-32" target="oHmZWyCTd7a1Ow8a4Acl-12" edge="1">
          <mxGeometry relative="1" as="geometry">
            <Array as="points">
              <mxPoint x="460" y="1510" />
              <mxPoint x="230" y="1510" />
              <mxPoint x="230" y="1220" />
              <mxPoint x="390" y="1220" />
            </Array>
          </mxGeometry>
        </mxCell>
        <mxCell id="oHmZWyCTd7a1Ow8a4Acl-32" value="Toropizhka" style="swimlane;fontStyle=1;align=center;verticalAlign=top;childLayout=stackLayout;horizontal=1;startSize=26;horizontalStack=0;resizeParent=1;resizeParentMax=0;resizeLast=0;collapsible=1;marginBottom=0;whiteSpace=wrap;html=1;" parent="1" vertex="1">
          <mxGeometry x="410" y="1606" width="100" height="52" as="geometry" />
        </mxCell>
        <mxCell id="GCY9MlM0JJRvWQCIpYqd-11" value="+ name: String" style="text;strokeColor=none;fillColor=none;align=left;verticalAlign=top;spacingLeft=4;spacingRight=4;overflow=hidden;rotatable=0;points=[[0,0.5],[1,0.5]];portConstraint=eastwest;whiteSpace=wrap;html=1;" vertex="1" parent="oHmZWyCTd7a1Ow8a4Acl-32">
          <mxGeometry y="26" width="100" height="26" as="geometry" />
        </mxCell>
        <mxCell id="oHmZWyCTd7a1Ow8a4Acl-75" style="edgeStyle=orthogonalEdgeStyle;rounded=0;orthogonalLoop=1;jettySize=auto;html=1;" parent="1" source="oHmZWyCTd7a1Ow8a4Acl-40" target="oHmZWyCTd7a1Ow8a4Acl-12" edge="1">
          <mxGeometry relative="1" as="geometry">
            <Array as="points">
              <mxPoint x="350" y="1510" />
              <mxPoint x="230" y="1510" />
              <mxPoint x="230" y="1220" />
              <mxPoint x="390" y="1220" />
            </Array>
          </mxGeometry>
        </mxCell>
        <mxCell id="oHmZWyCTd7a1Ow8a4Acl-40" value="Molchun" style="swimlane;fontStyle=1;align=center;verticalAlign=top;childLayout=stackLayout;horizontal=1;startSize=26;horizontalStack=0;resizeParent=1;resizeParentMax=0;resizeLast=0;collapsible=1;marginBottom=0;whiteSpace=wrap;html=1;" parent="1" vertex="1">
          <mxGeometry x="305" y="1606" width="90" height="52" as="geometry" />
        </mxCell>
        <mxCell id="GCY9MlM0JJRvWQCIpYqd-12" value="+ name: String" style="text;strokeColor=none;fillColor=none;align=left;verticalAlign=top;spacingLeft=4;spacingRight=4;overflow=hidden;rotatable=0;points=[[0,0.5],[1,0.5]];portConstraint=eastwest;whiteSpace=wrap;html=1;" vertex="1" parent="oHmZWyCTd7a1Ow8a4Acl-40">
          <mxGeometry y="26" width="90" height="26" as="geometry" />
        </mxCell>
        <mxCell id="oHmZWyCTd7a1Ow8a4Acl-76" style="edgeStyle=orthogonalEdgeStyle;rounded=0;orthogonalLoop=1;jettySize=auto;html=1;" parent="1" source="oHmZWyCTd7a1Ow8a4Acl-44" target="oHmZWyCTd7a1Ow8a4Acl-12" edge="1">
          <mxGeometry relative="1" as="geometry">
            <Array as="points">
              <mxPoint x="230" y="1220" />
              <mxPoint x="390" y="1220" />
            </Array>
          </mxGeometry>
        </mxCell>
        <mxCell id="oHmZWyCTd7a1Ow8a4Acl-44" value="Gvozdik" style="swimlane;fontStyle=1;align=center;verticalAlign=top;childLayout=stackLayout;horizontal=1;startSize=26;horizontalStack=0;resizeParent=1;resizeParentMax=0;resizeLast=0;collapsible=1;marginBottom=0;whiteSpace=wrap;html=1;" parent="1" vertex="1">
          <mxGeometry x="180" y="1606" width="100" height="52" as="geometry" />
        </mxCell>
        <mxCell id="GCY9MlM0JJRvWQCIpYqd-13" value="+ name: String" style="text;strokeColor=none;fillColor=none;align=left;verticalAlign=top;spacingLeft=4;spacingRight=4;overflow=hidden;rotatable=0;points=[[0,0.5],[1,0.5]];portConstraint=eastwest;whiteSpace=wrap;html=1;" vertex="1" parent="oHmZWyCTd7a1Ow8a4Acl-44">
          <mxGeometry y="26" width="100" height="26" as="geometry" />
        </mxCell>
        <mxCell id="oHmZWyCTd7a1Ow8a4Acl-48" value="Guslya" style="swimlane;fontStyle=1;align=center;verticalAlign=top;childLayout=stackLayout;horizontal=1;startSize=26;horizontalStack=0;resizeParent=1;resizeParentMax=0;resizeLast=0;collapsible=1;marginBottom=0;whiteSpace=wrap;html=1;" parent="1" vertex="1">
          <mxGeometry x="580" y="1083" width="190" height="112" as="geometry" />
        </mxCell>
        <mxCell id="GCY9MlM0JJRvWQCIpYqd-9" value="+ name: String" style="text;strokeColor=none;fillColor=none;align=left;verticalAlign=top;spacingLeft=4;spacingRight=4;overflow=hidden;rotatable=0;points=[[0,0.5],[1,0.5]];portConstraint=eastwest;whiteSpace=wrap;html=1;" vertex="1" parent="oHmZWyCTd7a1Ow8a4Acl-48">
          <mxGeometry y="26" width="190" height="26" as="geometry" />
        </mxCell>
        <mxCell id="oHmZWyCTd7a1Ow8a4Acl-15" value="" style="line;strokeWidth=1;fillColor=none;align=left;verticalAlign=middle;spacingTop=-1;spacingLeft=3;spacingRight=3;rotatable=0;labelPosition=right;points=[];portConstraint=eastwest;strokeColor=inherit;" parent="oHmZWyCTd7a1Ow8a4Acl-48" vertex="1">
          <mxGeometry y="52" width="190" height="8" as="geometry" />
        </mxCell>
        <mxCell id="oHmZWyCTd7a1Ow8a4Acl-49" value="+ selectHarpists(int): void" style="text;strokeColor=none;fillColor=none;align=left;verticalAlign=top;spacingLeft=4;spacingRight=4;overflow=hidden;rotatable=0;points=[[0,0.5],[1,0.5]];portConstraint=eastwest;whiteSpace=wrap;html=1;" parent="oHmZWyCTd7a1Ow8a4Acl-48" vertex="1">
          <mxGeometry y="60" width="190" height="26" as="geometry" />
        </mxCell>
        <mxCell id="oHmZWyCTd7a1Ow8a4Acl-51" value="+ organize(Harpist): void" style="text;strokeColor=none;fillColor=none;align=left;verticalAlign=top;spacingLeft=4;spacingRight=4;overflow=hidden;rotatable=0;points=[[0,0.5],[1,0.5]];portConstraint=eastwest;whiteSpace=wrap;html=1;" parent="oHmZWyCTd7a1Ow8a4Acl-48" vertex="1">
          <mxGeometry y="86" width="190" height="26" as="geometry" />
        </mxCell>
        <mxCell id="oHmZWyCTd7a1Ow8a4Acl-71" style="edgeStyle=orthogonalEdgeStyle;rounded=0;orthogonalLoop=1;jettySize=auto;html=1;" parent="1" source="oHmZWyCTd7a1Ow8a4Acl-56" edge="1">
          <mxGeometry relative="1" as="geometry">
            <mxPoint x="390" y="1040" as="targetPoint" />
            <Array as="points">
              <mxPoint x="245" y="1010" />
              <mxPoint x="390" y="1010" />
            </Array>
          </mxGeometry>
        </mxCell>
        <mxCell id="oHmZWyCTd7a1Ow8a4Acl-56" value="Harpist" style="swimlane;fontStyle=1;align=center;verticalAlign=top;childLayout=stackLayout;horizontal=1;startSize=26;horizontalStack=0;resizeParent=1;resizeParentMax=0;resizeLast=0;collapsible=1;marginBottom=0;whiteSpace=wrap;html=1;" parent="1" vertex="1">
          <mxGeometry x="190" y="890" width="110" height="82" as="geometry" />
        </mxCell>
        <mxCell id="GCY9MlM0JJRvWQCIpYqd-6" value="+ name: String" style="text;strokeColor=none;fillColor=none;align=left;verticalAlign=top;spacingLeft=4;spacingRight=4;overflow=hidden;rotatable=0;points=[[0,0.5],[1,0.5]];portConstraint=eastwest;whiteSpace=wrap;html=1;" vertex="1" parent="oHmZWyCTd7a1Ow8a4Acl-56">
          <mxGeometry y="26" width="110" height="22" as="geometry" />
        </mxCell>
        <mxCell id="GCY9MlM0JJRvWQCIpYqd-7" value="" style="line;strokeWidth=1;fillColor=none;align=left;verticalAlign=middle;spacingTop=-1;spacingLeft=3;spacingRight=3;rotatable=0;labelPosition=right;points=[];portConstraint=eastwest;strokeColor=inherit;" vertex="1" parent="oHmZWyCTd7a1Ow8a4Acl-56">
          <mxGeometry y="48" width="110" height="8" as="geometry" />
        </mxCell>
        <mxCell id="oHmZWyCTd7a1Ow8a4Acl-57" value="+ reherarse(): void" style="text;strokeColor=none;fillColor=none;align=left;verticalAlign=top;spacingLeft=4;spacingRight=4;overflow=hidden;rotatable=0;points=[[0,0.5],[1,0.5]];portConstraint=eastwest;whiteSpace=wrap;html=1;" parent="oHmZWyCTd7a1Ow8a4Acl-56" vertex="1">
          <mxGeometry y="56" width="110" height="26" as="geometry" />
        </mxCell>
        <mxCell id="oHmZWyCTd7a1Ow8a4Acl-60" value="PopulationPart" style="swimlane;fontStyle=1;align=center;verticalAlign=top;childLayout=stackLayout;horizontal=1;startSize=26;horizontalStack=0;resizeParent=1;resizeParentMax=0;resizeLast=0;collapsible=1;marginBottom=0;whiteSpace=wrap;html=1;" parent="1" vertex="1">
          <mxGeometry x="310" y="870" width="180" height="126" as="geometry" />
        </mxCell>
        <mxCell id="GCY9MlM0JJRvWQCIpYqd-3" value="+ name: String" style="text;strokeColor=none;fillColor=none;align=left;verticalAlign=top;spacingLeft=4;spacingRight=4;overflow=hidden;rotatable=0;points=[[0,0.5],[1,0.5]];portConstraint=eastwest;whiteSpace=wrap;html=1;" vertex="1" parent="oHmZWyCTd7a1Ow8a4Acl-60">
          <mxGeometry y="26" width="180" height="26" as="geometry" />
        </mxCell>
        <mxCell id="GCY9MlM0JJRvWQCIpYqd-4" value="" style="line;strokeWidth=1;fillColor=none;align=left;verticalAlign=middle;spacingTop=-1;spacingLeft=3;spacingRight=3;rotatable=0;labelPosition=right;points=[];portConstraint=eastwest;strokeColor=inherit;" vertex="1" parent="oHmZWyCTd7a1Ow8a4Acl-60">
          <mxGeometry y="52" width="180" height="8" as="geometry" />
        </mxCell>
        <mxCell id="oHmZWyCTd7a1Ow8a4Acl-61" value="+ clearArea(DanceFloor): void" style="text;strokeColor=none;fillColor=none;align=left;verticalAlign=top;spacingLeft=4;spacingRight=4;overflow=hidden;rotatable=0;points=[[0,0.5],[1,0.5]];portConstraint=eastwest;whiteSpace=wrap;html=1;" parent="oHmZWyCTd7a1Ow8a4Acl-60" vertex="1">
          <mxGeometry y="60" width="180" height="24" as="geometry" />
        </mxCell>
        <mxCell id="GCY9MlM0JJRvWQCIpYqd-1" value="+ giveGifts(SnakeKids): void" style="text;strokeColor=none;fillColor=none;align=left;verticalAlign=top;spacingLeft=4;spacingRight=4;overflow=hidden;rotatable=0;points=[[0,0.5],[1,0.5]];portConstraint=eastwest;whiteSpace=wrap;html=1;" vertex="1" parent="oHmZWyCTd7a1Ow8a4Acl-60">
          <mxGeometry y="84" width="180" height="16" as="geometry" />
        </mxCell>
        <mxCell id="oHmZWyCTd7a1Ow8a4Acl-63" value="+ build(Buildable): void" style="text;strokeColor=none;fillColor=none;align=left;verticalAlign=top;spacingLeft=4;spacingRight=4;overflow=hidden;rotatable=0;points=[[0,0.5],[1,0.5]];portConstraint=eastwest;whiteSpace=wrap;html=1;" parent="oHmZWyCTd7a1Ow8a4Acl-60" vertex="1">
          <mxGeometry y="100" width="180" height="26" as="geometry" />
        </mxCell>
        <mxCell id="oHmZWyCTd7a1Ow8a4Acl-69" style="edgeStyle=orthogonalEdgeStyle;rounded=0;orthogonalLoop=1;jettySize=auto;html=1;" parent="1" edge="1" target="oHmZWyCTd7a1Ow8a4Acl-12">
          <mxGeometry relative="1" as="geometry">
            <mxPoint x="410" y="1040" as="targetPoint" />
            <Array as="points">
              <mxPoint x="560" y="1010" />
              <mxPoint x="390" y="1010" />
            </Array>
            <mxPoint x="560" y="968" as="sourcePoint" />
          </mxGeometry>
        </mxCell>
        <mxCell id="oHmZWyCTd7a1Ow8a4Acl-64" value="SnakeKids" style="swimlane;fontStyle=1;align=center;verticalAlign=top;childLayout=stackLayout;horizontal=1;startSize=26;horizontalStack=0;resizeParent=1;resizeParentMax=0;resizeLast=0;collapsible=1;marginBottom=0;whiteSpace=wrap;html=1;" parent="1" vertex="1">
          <mxGeometry x="518.55" y="916" width="110" height="52" as="geometry" />
        </mxCell>
        <mxCell id="GCY9MlM0JJRvWQCIpYqd-5" value="+ name: String" style="text;strokeColor=none;fillColor=none;align=left;verticalAlign=top;spacingLeft=4;spacingRight=4;overflow=hidden;rotatable=0;points=[[0,0.5],[1,0.5]];portConstraint=eastwest;whiteSpace=wrap;html=1;" vertex="1" parent="oHmZWyCTd7a1Ow8a4Acl-64">
          <mxGeometry y="26" width="110" height="26" as="geometry" />
        </mxCell>
        <mxCell id="oHmZWyCTd7a1Ow8a4Acl-68" style="edgeStyle=orthogonalEdgeStyle;rounded=0;orthogonalLoop=1;jettySize=auto;html=1;" parent="1" source="oHmZWyCTd7a1Ow8a4Acl-60" target="oHmZWyCTd7a1Ow8a4Acl-12" edge="1">
          <mxGeometry relative="1" as="geometry">
            <mxPoint x="390" y="1030" as="targetPoint" />
            <Array as="points">
              <mxPoint x="390" y="1030" />
              <mxPoint x="390" y="1030" />
            </Array>
          </mxGeometry>
        </mxCell>
        <mxCell id="oHmZWyCTd7a1Ow8a4Acl-80" style="edgeStyle=orthogonalEdgeStyle;rounded=0;orthogonalLoop=1;jettySize=auto;html=1;entryX=1.019;entryY=0.123;entryDx=0;entryDy=0;entryPerimeter=0;" parent="1" source="oHmZWyCTd7a1Ow8a4Acl-48" target="oHmZWyCTd7a1Ow8a4Acl-12" edge="1">
          <mxGeometry relative="1" as="geometry" />
        </mxCell>
        <mxCell id="oHmZWyCTd7a1Ow8a4Acl-81" value="&lt;p style=&quot;margin:0px;margin-top:4px;text-align:center;&quot;&gt;&lt;i&gt;&amp;lt;&amp;lt;Interface&amp;gt;&amp;gt;&lt;/i&gt;&lt;br&gt;&lt;b&gt;Buildable&lt;/b&gt;&lt;/p&gt;&lt;hr size=&quot;1&quot; style=&quot;border-style:solid;&quot;&gt;&lt;p style=&quot;margin:0px;margin-left:4px;&quot;&gt;&lt;span style=&quot;background-color: transparent; color: light-dark(rgb(0, 0, 0), rgb(255, 255, 255));&quot;&gt;+ build(): String&lt;/span&gt;&lt;/p&gt;" style="verticalAlign=top;align=left;overflow=fill;html=1;whiteSpace=wrap;fillColor=#bac8d3;strokeColor=#23445d;" parent="1" vertex="1">
          <mxGeometry x="530" y="1290" width="160" height="70" as="geometry" />
        </mxCell>
        <mxCell id="oHmZWyCTd7a1Ow8a4Acl-89" value="&lt;div&gt;Job&lt;/div&gt;" style="swimlane;fontStyle=1;align=center;verticalAlign=top;childLayout=stackLayout;horizontal=1;startSize=30;horizontalStack=0;resizeParent=1;resizeParentMax=0;resizeLast=0;collapsible=1;marginBottom=0;whiteSpace=wrap;html=1;" parent="1" vertex="1">
          <mxGeometry x="-270" y="950" width="210" height="176" as="geometry" />
        </mxCell>
        <mxCell id="oHmZWyCTd7a1Ow8a4Acl-90" value="+ name: String" style="text;strokeColor=none;fillColor=none;align=left;verticalAlign=top;spacingLeft=4;spacingRight=4;overflow=hidden;rotatable=0;points=[[0,0.5],[1,0.5]];portConstraint=eastwest;whiteSpace=wrap;html=1;" parent="oHmZWyCTd7a1Ow8a4Acl-89" vertex="1">
          <mxGeometry y="30" width="210" height="26" as="geometry" />
        </mxCell>
        <mxCell id="oHmZWyCTd7a1Ow8a4Acl-91" value="" style="line;strokeWidth=1;fillColor=none;align=left;verticalAlign=middle;spacingTop=-1;spacingLeft=3;spacingRight=3;rotatable=0;labelPosition=right;points=[];portConstraint=eastwest;strokeColor=inherit;" parent="oHmZWyCTd7a1Ow8a4Acl-89" vertex="1">
          <mxGeometry y="56" width="210" height="8" as="geometry" />
        </mxCell>
        <mxCell id="oHmZWyCTd7a1Ow8a4Acl-92" value="+ getDescription(String): void" style="text;strokeColor=none;fillColor=none;align=left;verticalAlign=top;spacingLeft=4;spacingRight=4;overflow=hidden;rotatable=0;points=[[0,0.5],[1,0.5]];portConstraint=eastwest;whiteSpace=wrap;html=1;" parent="oHmZWyCTd7a1Ow8a4Acl-89" vertex="1">
          <mxGeometry y="64" width="210" height="34" as="geometry" />
        </mxCell>
        <mxCell id="oHmZWyCTd7a1Ow8a4Acl-93" value="+ getContext(String): void" style="text;strokeColor=none;fillColor=none;align=left;verticalAlign=top;spacingLeft=4;spacingRight=4;overflow=hidden;rotatable=0;points=[[0,0.5],[1,0.5]];portConstraint=eastwest;whiteSpace=wrap;html=1;" parent="oHmZWyCTd7a1Ow8a4Acl-89" vertex="1">
          <mxGeometry y="98" width="210" height="40" as="geometry" />
        </mxCell>
        <mxCell id="oHmZWyCTd7a1Ow8a4Acl-94" value="+ getStatusDescription(String): void" style="text;strokeColor=none;fillColor=none;align=left;verticalAlign=top;spacingLeft=4;spacingRight=4;overflow=hidden;rotatable=0;points=[[0,0.5],[1,0.5]];portConstraint=eastwest;whiteSpace=wrap;html=1;" parent="oHmZWyCTd7a1Ow8a4Acl-89" vertex="1">
          <mxGeometry y="138" width="210" height="38" as="geometry" />
        </mxCell>
        <mxCell id="oHmZWyCTd7a1Ow8a4Acl-96" value="&lt;div&gt;&amp;nbsp;&lt;i&gt;&amp;lt;&amp;lt;Enum&amp;gt;&amp;gt;&lt;/i&gt;&lt;/div&gt;&lt;div&gt;FoodType&lt;/div&gt;" style="swimlane;fontStyle=0;childLayout=stackLayout;horizontal=1;startSize=40;fillColor=#fad7ac;horizontalStack=0;resizeParent=1;resizeParentMax=0;resizeLast=0;collapsible=1;marginBottom=0;whiteSpace=wrap;html=1;strokeColor=#b46504;" parent="1" vertex="1">
          <mxGeometry x="10" y="1070" width="140" height="118" as="geometry" />
        </mxCell>
        <mxCell id="oHmZWyCTd7a1Ow8a4Acl-97" value="+ sparklingWater" style="text;strokeColor=#b46504;fillColor=#fad7ac;align=left;verticalAlign=top;spacingLeft=4;spacingRight=4;overflow=hidden;rotatable=0;points=[[0,0.5],[1,0.5]];portConstraint=eastwest;whiteSpace=wrap;html=1;" parent="oHmZWyCTd7a1Ow8a4Acl-96" vertex="1">
          <mxGeometry y="40" width="140" height="26" as="geometry" />
        </mxCell>
        <mxCell id="oHmZWyCTd7a1Ow8a4Acl-98" value="+ iceCream" style="text;strokeColor=#b46504;fillColor=#fad7ac;align=left;verticalAlign=top;spacingLeft=4;spacingRight=4;overflow=hidden;rotatable=0;points=[[0,0.5],[1,0.5]];portConstraint=eastwest;whiteSpace=wrap;html=1;" parent="oHmZWyCTd7a1Ow8a4Acl-96" vertex="1">
          <mxGeometry y="66" width="140" height="26" as="geometry" />
        </mxCell>
        <mxCell id="oHmZWyCTd7a1Ow8a4Acl-99" value="+ other" style="text;strokeColor=#b46504;fillColor=#fad7ac;align=left;verticalAlign=top;spacingLeft=4;spacingRight=4;overflow=hidden;rotatable=0;points=[[0,0.5],[1,0.5]];portConstraint=eastwest;whiteSpace=wrap;html=1;" parent="oHmZWyCTd7a1Ow8a4Acl-96" vertex="1">
          <mxGeometry y="92" width="140" height="26" as="geometry" />
        </mxCell>
        <mxCell id="oHmZWyCTd7a1Ow8a4Acl-100" value="&lt;div&gt;&amp;nbsp;&lt;i&gt;&amp;lt;&amp;lt;Enum&amp;gt;&amp;gt;&lt;/i&gt;&lt;/div&gt;&lt;div&gt;Fruits&lt;/div&gt;" style="swimlane;fontStyle=0;childLayout=stackLayout;horizontal=1;startSize=40;fillColor=#fad7ac;horizontalStack=0;resizeParent=1;resizeParentMax=0;resizeLast=0;collapsible=1;marginBottom=0;whiteSpace=wrap;html=1;strokeColor=#b46504;" parent="1" vertex="1">
          <mxGeometry x="10" y="1250" width="140" height="118" as="geometry" />
        </mxCell>
        <mxCell id="oHmZWyCTd7a1Ow8a4Acl-101" value="+ apples" style="text;strokeColor=#b46504;fillColor=#fad7ac;align=left;verticalAlign=top;spacingLeft=4;spacingRight=4;overflow=hidden;rotatable=0;points=[[0,0.5],[1,0.5]];portConstraint=eastwest;whiteSpace=wrap;html=1;" parent="oHmZWyCTd7a1Ow8a4Acl-100" vertex="1">
          <mxGeometry y="40" width="140" height="26" as="geometry" />
        </mxCell>
        <mxCell id="oHmZWyCTd7a1Ow8a4Acl-102" value="+ plums" style="text;strokeColor=#b46504;fillColor=#fad7ac;align=left;verticalAlign=top;spacingLeft=4;spacingRight=4;overflow=hidden;rotatable=0;points=[[0,0.5],[1,0.5]];portConstraint=eastwest;whiteSpace=wrap;html=1;" parent="oHmZWyCTd7a1Ow8a4Acl-100" vertex="1">
          <mxGeometry y="66" width="140" height="26" as="geometry" />
        </mxCell>
        <mxCell id="oHmZWyCTd7a1Ow8a4Acl-103" value="+ pears" style="text;strokeColor=#b46504;fillColor=#fad7ac;align=left;verticalAlign=top;spacingLeft=4;spacingRight=4;overflow=hidden;rotatable=0;points=[[0,0.5],[1,0.5]];portConstraint=eastwest;whiteSpace=wrap;html=1;" parent="oHmZWyCTd7a1Ow8a4Acl-100" vertex="1">
          <mxGeometry y="92" width="140" height="26" as="geometry" />
        </mxCell>
        <mxCell id="oHmZWyCTd7a1Ow8a4Acl-104" value="&lt;span style=&quot;font-weight: normal;&quot;&gt;&lt;i&gt;&amp;lt;&amp;lt;Record&amp;gt;&amp;gt;&lt;/i&gt;&lt;/span&gt;&lt;div&gt;Trees&lt;/div&gt;" style="swimlane;fontStyle=1;align=center;verticalAlign=top;childLayout=stackLayout;horizontal=1;startSize=40;horizontalStack=0;resizeParent=1;resizeParentMax=0;resizeLast=0;collapsible=1;marginBottom=0;whiteSpace=wrap;html=1;fillColor=#FFCCCC;" parent="1" vertex="1">
          <mxGeometry x="-280" y="1290" width="180" height="80" as="geometry" />
        </mxCell>
        <mxCell id="oHmZWyCTd7a1Ow8a4Acl-105" value="+ description: String&lt;div&gt;+ fruitsOnTrees: Fruits&lt;/div&gt;" style="text;strokeColor=none;fillColor=#FFCCCC;align=left;verticalAlign=top;spacingLeft=4;spacingRight=4;overflow=hidden;rotatable=0;points=[[0,0.5],[1,0.5]];portConstraint=eastwest;whiteSpace=wrap;html=1;" parent="oHmZWyCTd7a1Ow8a4Acl-104" vertex="1">
          <mxGeometry y="40" width="180" height="40" as="geometry" />
        </mxCell>
        <mxCell id="oHmZWyCTd7a1Ow8a4Acl-109" value="&lt;span style=&quot;font-weight: normal;&quot;&gt;&lt;i&gt;&amp;lt;&amp;lt;Record&amp;gt;&amp;gt;&lt;/i&gt;&lt;/span&gt;&lt;div&gt;Cellars&lt;/div&gt;" style="swimlane;fontStyle=1;align=center;verticalAlign=top;childLayout=stackLayout;horizontal=1;startSize=40;horizontalStack=0;resizeParent=1;resizeParentMax=0;resizeLast=0;collapsible=1;marginBottom=0;whiteSpace=wrap;html=1;fillColor=#FFCCCC;" parent="1" vertex="1">
          <mxGeometry x="-280" y="1406" width="180" height="80" as="geometry" />
        </mxCell>
        <mxCell id="oHmZWyCTd7a1Ow8a4Acl-110" value="+ description: String&lt;div&gt;+ getStatus(int): void&lt;/div&gt;" style="text;strokeColor=none;fillColor=#FFCCCC;align=left;verticalAlign=top;spacingLeft=4;spacingRight=4;overflow=hidden;rotatable=0;points=[[0,0.5],[1,0.5]];portConstraint=eastwest;whiteSpace=wrap;html=1;" parent="oHmZWyCTd7a1Ow8a4Acl-109" vertex="1">
          <mxGeometry y="40" width="180" height="40" as="geometry" />
        </mxCell>
        <mxCell id="oHmZWyCTd7a1Ow8a4Acl-113" value="" style="edgeStyle=orthogonalEdgeStyle;rounded=0;orthogonalLoop=1;jettySize=auto;html=1;endArrow=diamond;endFill=0;" parent="1" source="oHmZWyCTd7a1Ow8a4Acl-60" target="oHmZWyCTd7a1Ow8a4Acl-64" edge="1">
          <mxGeometry relative="1" as="geometry">
            <Array as="points">
              <mxPoint x="490" y="930" />
              <mxPoint x="490" y="930" />
            </Array>
            <mxPoint x="489.99999999999983" y="929" as="sourcePoint" />
            <mxPoint x="522.55" y="921" as="targetPoint" />
          </mxGeometry>
        </mxCell>
        <mxCell id="oHmZWyCTd7a1Ow8a4Acl-115" value="&lt;span style=&quot;font-weight: normal;&quot;&gt;&lt;i&gt;&amp;lt;&amp;lt;Record&amp;gt;&amp;gt;&lt;/i&gt;&lt;/span&gt;&lt;div&gt;DanceFloor&lt;/div&gt;" style="swimlane;fontStyle=1;align=center;verticalAlign=top;childLayout=stackLayout;horizontal=1;startSize=40;horizontalStack=0;resizeParent=1;resizeParentMax=0;resizeLast=0;collapsible=1;marginBottom=0;whiteSpace=wrap;html=1;fillColor=#FFCCCC;" parent="1" vertex="1">
          <mxGeometry x="305" y="750" width="180" height="70" as="geometry" />
        </mxCell>
        <mxCell id="oHmZWyCTd7a1Ow8a4Acl-116" value="+ description: String" style="text;strokeColor=none;fillColor=#FFCCCC;align=left;verticalAlign=top;spacingLeft=4;spacingRight=4;overflow=hidden;rotatable=0;points=[[0,0.5],[1,0.5]];portConstraint=eastwest;whiteSpace=wrap;html=1;" parent="oHmZWyCTd7a1Ow8a4Acl-115" vertex="1">
          <mxGeometry y="40" width="180" height="30" as="geometry" />
        </mxCell>
        <mxCell id="oHmZWyCTd7a1Ow8a4Acl-117" value="" style="edgeStyle=orthogonalEdgeStyle;rounded=0;orthogonalLoop=1;jettySize=auto;html=1;endArrow=diamond;endFill=0;" parent="1" source="oHmZWyCTd7a1Ow8a4Acl-60" target="oHmZWyCTd7a1Ow8a4Acl-115" edge="1">
          <mxGeometry relative="1" as="geometry">
            <Array as="points">
              <mxPoint x="424" y="870" />
              <mxPoint x="395" y="870" />
            </Array>
            <mxPoint x="364" y="876" as="sourcePoint" />
            <mxPoint x="474" y="870" as="targetPoint" />
          </mxGeometry>
        </mxCell>
        <mxCell id="oHmZWyCTd7a1Ow8a4Acl-120" value="&lt;span style=&quot;font-weight: normal;&quot;&gt;&lt;i&gt;&amp;lt;&amp;lt;Record&amp;gt;&amp;gt;&lt;/i&gt;&lt;/span&gt;&lt;div&gt;Fence&lt;/div&gt;" style="swimlane;fontStyle=1;align=center;verticalAlign=top;childLayout=stackLayout;horizontal=1;startSize=40;horizontalStack=0;resizeParent=1;resizeParentMax=0;resizeLast=0;collapsible=1;marginBottom=0;whiteSpace=wrap;html=1;fillColor=#FFCCCC;" parent="1" vertex="1">
          <mxGeometry x="90" y="750" width="180" height="70" as="geometry" />
        </mxCell>
        <mxCell id="oHmZWyCTd7a1Ow8a4Acl-121" value="+ description: String" style="text;strokeColor=none;fillColor=#FFCCCC;align=left;verticalAlign=top;spacingLeft=4;spacingRight=4;overflow=hidden;rotatable=0;points=[[0,0.5],[1,0.5]];portConstraint=eastwest;whiteSpace=wrap;html=1;" parent="oHmZWyCTd7a1Ow8a4Acl-120" vertex="1">
          <mxGeometry y="40" width="180" height="30" as="geometry" />
        </mxCell>
        <mxCell id="oHmZWyCTd7a1Ow8a4Acl-128" value="&lt;span style=&quot;font-weight: normal;&quot;&gt;&lt;i&gt;&amp;lt;&amp;lt;Record&amp;gt;&amp;gt;&lt;/i&gt;&lt;/span&gt;&lt;div&gt;Tents&lt;/div&gt;" style="swimlane;fontStyle=1;align=center;verticalAlign=top;childLayout=stackLayout;horizontal=1;startSize=40;horizontalStack=0;resizeParent=1;resizeParentMax=0;resizeLast=0;collapsible=1;marginBottom=0;whiteSpace=wrap;html=1;fillColor=#FFCCCC;" parent="1" vertex="1">
          <mxGeometry x="-10" y="950" width="180" height="70" as="geometry" />
        </mxCell>
        <mxCell id="oHmZWyCTd7a1Ow8a4Acl-129" value="+ description: String" style="text;strokeColor=none;fillColor=#FFCCCC;align=left;verticalAlign=top;spacingLeft=4;spacingRight=4;overflow=hidden;rotatable=0;points=[[0,0.5],[1,0.5]];portConstraint=eastwest;whiteSpace=wrap;html=1;" parent="oHmZWyCTd7a1Ow8a4Acl-128" vertex="1">
          <mxGeometry y="40" width="180" height="30" as="geometry" />
        </mxCell>
        <mxCell id="oHmZWyCTd7a1Ow8a4Acl-131" value="" style="edgeStyle=orthogonalEdgeStyle;rounded=0;orthogonalLoop=1;jettySize=auto;html=1;endArrow=diamond;endFill=0;" parent="1" source="oHmZWyCTd7a1Ow8a4Acl-128" target="oHmZWyCTd7a1Ow8a4Acl-96" edge="1">
          <mxGeometry relative="1" as="geometry">
            <Array as="points">
              <mxPoint x="20" y="985" />
              <mxPoint x="20" y="1129" />
            </Array>
            <mxPoint x="-90" y="1325" as="sourcePoint" />
            <mxPoint x="20" y="1319" as="targetPoint" />
          </mxGeometry>
        </mxCell>
        <mxCell id="oHmZWyCTd7a1Ow8a4Acl-132" value="" style="edgeStyle=orthogonalEdgeStyle;rounded=0;orthogonalLoop=1;jettySize=auto;html=1;endArrow=diamond;endFill=0;" parent="1" source="oHmZWyCTd7a1Ow8a4Acl-48" target="oHmZWyCTd7a1Ow8a4Acl-56" edge="1">
          <mxGeometry relative="1" as="geometry">
            <Array as="points">
              <mxPoint x="650" y="860" />
              <mxPoint x="245" y="860" />
            </Array>
            <mxPoint x="630" y="949" as="sourcePoint" />
            <mxPoint x="690" y="949" as="targetPoint" />
          </mxGeometry>
        </mxCell>
        <mxCell id="oHmZWyCTd7a1Ow8a4Acl-135" style="edgeStyle=orthogonalEdgeStyle;rounded=0;orthogonalLoop=1;jettySize=auto;html=1;endArrow=block;endFill=0;dashed=1;" parent="1" source="oHmZWyCTd7a1Ow8a4Acl-81" target="oHmZWyCTd7a1Ow8a4Acl-120" edge="1">
          <mxGeometry relative="1" as="geometry">
            <mxPoint x="620" y="1386" as="sourcePoint" />
            <mxPoint x="620" y="1448" as="targetPoint" />
            <Array as="points">
              <mxPoint x="790" y="1335" />
              <mxPoint x="790" y="710" />
              <mxPoint x="180" y="710" />
            </Array>
          </mxGeometry>
        </mxCell>
        <mxCell id="oHmZWyCTd7a1Ow8a4Acl-136" style="edgeStyle=orthogonalEdgeStyle;rounded=0;orthogonalLoop=1;jettySize=auto;html=1;endArrow=block;endFill=0;dashed=1;" parent="1" source="oHmZWyCTd7a1Ow8a4Acl-81" target="oHmZWyCTd7a1Ow8a4Acl-128" edge="1">
          <mxGeometry relative="1" as="geometry">
            <mxPoint x="700" y="1345" as="sourcePoint" />
            <mxPoint x="190" y="760" as="targetPoint" />
            <Array as="points">
              <mxPoint x="800" y="1345" />
              <mxPoint x="800" y="670" />
              <mxPoint x="30" y="670" />
            </Array>
          </mxGeometry>
        </mxCell>
        <mxCell id="GCY9MlM0JJRvWQCIpYqd-14" value="" style="edgeStyle=orthogonalEdgeStyle;rounded=0;orthogonalLoop=1;jettySize=auto;html=1;endArrow=diamond;endFill=0;exitX=0.993;exitY=0.401;exitDx=0;exitDy=0;exitPerimeter=0;" edge="1" parent="1" source="oHmZWyCTd7a1Ow8a4Acl-61" target="oHmZWyCTd7a1Ow8a4Acl-81">
          <mxGeometry relative="1" as="geometry">
            <Array as="points">
              <mxPoint x="500" y="940" />
              <mxPoint x="500" y="1250" />
              <mxPoint x="610" y="1250" />
            </Array>
            <mxPoint x="484" y="940" as="sourcePoint" />
            <mxPoint x="529" y="940" as="targetPoint" />
          </mxGeometry>
        </mxCell>
        <mxCell id="GCY9MlM0JJRvWQCIpYqd-21" value="" style="edgeStyle=orthogonalEdgeStyle;rounded=0;orthogonalLoop=1;jettySize=auto;html=1;endArrow=diamond;endFill=0;" edge="1" parent="1" source="oHmZWyCTd7a1Ow8a4Acl-18" target="GCY9MlM0JJRvWQCIpYqd-31">
          <mxGeometry relative="1" as="geometry">
            <Array as="points">
              <mxPoint x="610" y="1406" />
            </Array>
            <mxPoint x="518.55" y="1405.96" as="sourcePoint" />
            <mxPoint x="620.037037037037" y="1470" as="targetPoint" />
          </mxGeometry>
        </mxCell>
        <mxCell id="GCY9MlM0JJRvWQCIpYqd-27" value="" style="edgeStyle=orthogonalEdgeStyle;rounded=0;orthogonalLoop=1;jettySize=auto;html=1;endArrow=diamond;endFill=0;" edge="1" parent="1" source="oHmZWyCTd7a1Ow8a4Acl-18" target="oHmZWyCTd7a1Ow8a4Acl-32">
          <mxGeometry relative="1" as="geometry">
            <Array as="points">
              <mxPoint x="470" y="1530" />
              <mxPoint x="470" y="1530" />
            </Array>
            <mxPoint x="500" y="1416" as="sourcePoint" />
            <mxPoint x="630" y="1480" as="targetPoint" />
          </mxGeometry>
        </mxCell>
        <mxCell id="GCY9MlM0JJRvWQCIpYqd-28" value="" style="edgeStyle=orthogonalEdgeStyle;rounded=0;orthogonalLoop=1;jettySize=auto;html=1;endArrow=diamond;endFill=0;" edge="1" parent="1" source="oHmZWyCTd7a1Ow8a4Acl-18" target="oHmZWyCTd7a1Ow8a4Acl-40">
          <mxGeometry relative="1" as="geometry">
            <Array as="points">
              <mxPoint x="400" y="1529" />
              <mxPoint x="360" y="1529" />
            </Array>
            <mxPoint x="480" y="1462" as="sourcePoint" />
            <mxPoint x="480" y="1616" as="targetPoint" />
          </mxGeometry>
        </mxCell>
        <mxCell id="GCY9MlM0JJRvWQCIpYqd-29" value="" style="edgeStyle=orthogonalEdgeStyle;rounded=0;orthogonalLoop=1;jettySize=auto;html=1;endArrow=diamond;endFill=0;" edge="1" parent="1" source="oHmZWyCTd7a1Ow8a4Acl-18" target="oHmZWyCTd7a1Ow8a4Acl-44">
          <mxGeometry relative="1" as="geometry">
            <Array as="points">
              <mxPoint x="380" y="1480" />
              <mxPoint x="260" y="1480" />
            </Array>
            <mxPoint x="490" y="1472" as="sourcePoint" />
            <mxPoint x="490" y="1626" as="targetPoint" />
          </mxGeometry>
        </mxCell>
        <mxCell id="GCY9MlM0JJRvWQCIpYqd-31" value="&lt;span style=&quot;font-weight: normal;&quot;&gt;&lt;i&gt;&amp;lt;&amp;lt;Record&amp;gt;&amp;gt;&lt;/i&gt;&lt;/span&gt;&lt;div&gt;Alcove&lt;/div&gt;" style="swimlane;fontStyle=1;align=center;verticalAlign=top;childLayout=stackLayout;horizontal=1;startSize=40;horizontalStack=0;resizeParent=1;resizeParentMax=0;resizeLast=0;collapsible=1;marginBottom=0;whiteSpace=wrap;html=1;fillColor=#FFCCCC;" vertex="1" parent="1">
          <mxGeometry x="520" y="1460" width="180" height="70" as="geometry" />
        </mxCell>
        <mxCell id="GCY9MlM0JJRvWQCIpYqd-32" value="+ description: String" style="text;strokeColor=none;fillColor=#FFCCCC;align=left;verticalAlign=top;spacingLeft=4;spacingRight=4;overflow=hidden;rotatable=0;points=[[0,0.5],[1,0.5]];portConstraint=eastwest;whiteSpace=wrap;html=1;" vertex="1" parent="GCY9MlM0JJRvWQCIpYqd-31">
          <mxGeometry y="40" width="180" height="30" as="geometry" />
        </mxCell>
        <mxCell id="GCY9MlM0JJRvWQCIpYqd-33" value="" style="edgeStyle=orthogonalEdgeStyle;rounded=0;orthogonalLoop=1;jettySize=auto;html=1;endArrow=diamond;endFill=0;" edge="1" parent="1" source="oHmZWyCTd7a1Ow8a4Acl-104" target="oHmZWyCTd7a1Ow8a4Acl-100">
          <mxGeometry relative="1" as="geometry">
            <Array as="points">
              <mxPoint x="-60" y="1320" />
              <mxPoint x="-60" y="1320" />
            </Array>
            <mxPoint x="370" y="1008" as="sourcePoint" />
            <mxPoint x="-90" y="1319" as="targetPoint" />
          </mxGeometry>
        </mxCell>
        <mxCell id="GCY9MlM0JJRvWQCIpYqd-36" value="&lt;span style=&quot;font-weight: normal;&quot;&gt;&lt;i&gt;&amp;lt;&amp;lt;Exception&amp;gt;&amp;gt;&lt;/i&gt;&lt;/span&gt;&lt;div&gt;IndexOutOfBoundsException&lt;/div&gt;" style="swimlane;fontStyle=1;align=center;verticalAlign=top;childLayout=stackLayout;horizontal=1;startSize=40;horizontalStack=0;resizeParent=1;resizeParentMax=0;resizeLast=0;collapsible=1;marginBottom=0;whiteSpace=wrap;html=1;fillColor=#FFCCCC;" vertex="1" parent="1">
          <mxGeometry x="-260" y="800" width="180" height="70" as="geometry" />
        </mxCell>
        <mxCell id="GCY9MlM0JJRvWQCIpYqd-37" value="+ getMessage(): String" style="text;strokeColor=none;fillColor=#FFCCCC;align=left;verticalAlign=top;spacingLeft=4;spacingRight=4;overflow=hidden;rotatable=0;points=[[0,0.5],[1,0.5]];portConstraint=eastwest;whiteSpace=wrap;html=1;" vertex="1" parent="GCY9MlM0JJRvWQCIpYqd-36">
          <mxGeometry y="40" width="180" height="30" as="geometry" />
        </mxCell>
        <mxCell id="GCY9MlM0JJRvWQCIpYqd-38" style="edgeStyle=orthogonalEdgeStyle;rounded=0;orthogonalLoop=1;jettySize=auto;html=1;endArrow=block;dashed=1;" edge="1" parent="1" source="oHmZWyCTd7a1Ow8a4Acl-89" target="GCY9MlM0JJRvWQCIpYqd-36">
          <mxGeometry relative="1" as="geometry">
            <mxPoint x="700" y="1355" as="sourcePoint" />
            <mxPoint x="40" y="960" as="targetPoint" />
            <Array as="points">
              <mxPoint x="-165" y="870" />
              <mxPoint x="-165" y="870" />
            </Array>
          </mxGeometry>
        </mxCell>
        <mxCell id="GCY9MlM0JJRvWQCIpYqd-39" style="edgeStyle=orthogonalEdgeStyle;rounded=0;orthogonalLoop=1;jettySize=auto;html=1;endArrow=block;dashed=1;" edge="1" parent="1" source="oHmZWyCTd7a1Ow8a4Acl-109" target="GCY9MlM0JJRvWQCIpYqd-36">
          <mxGeometry relative="1" as="geometry">
            <mxPoint x="-155" y="960" as="sourcePoint" />
            <mxPoint x="-155" y="880" as="targetPoint" />
            <Array as="points">
              <mxPoint x="-330" y="1446" />
              <mxPoint x="-330" y="835" />
            </Array>
          </mxGeometry>
        </mxCell>
      </root>
    </mxGraphModel>
  </diagram>
</mxfile>
